<?xml version="1.0" encoding="iso-8859-1"?>
<!-- Generator: Adobe Illustrator 21.0.0, SVG Export Plug-In . SVG Version: 6.00 Build 0)  -->
<svg xmlns="http://www.w3.org/2000/svg" xmlns:xlink="http://www.w3.org/1999/xlink" version="1.1" id="Capa_1" x="0px" y="0px" viewBox="0 0 512 512" style="enable-background:new 0 0 512 512;" xml:space="preserve" width="512" height="512">
<g>
	<ellipse style="fill:#F0725F;" cx="210.5" cy="30.118" rx="30" ry="30.118"/>
	<ellipse style="fill:#EA3D2C;" cx="330.5" cy="30.118" rx="30" ry="30.118"/>
	<ellipse style="fill:#EA3D2C;" cx="330.5" cy="120.471" rx="30" ry="30.118"/>
	<ellipse style="fill:#F0725F;" cx="90.5" cy="30.118" rx="30" ry="30.118"/>
	<ellipse style="fill:#F0725F;" cx="90.5" cy="120.471" rx="30" ry="30.118"/>
	<ellipse style="fill:#F0725F;" cx="90.5" cy="210.824" rx="30" ry="30.118"/>
	<path style="fill:#FEB655;" d="M421.5,466.824V256c0-16.633-13.431-30.118-30-30.118s-30,13.484-30,30.118   c0-16.633-13.431-30.118-30-30.118s-30,13.484-30,30.118c0-16.633-13.431-30.118-30-30.118s-30,13.484-30,30.118V135.529   c0-16.634-13.431-30.118-30-30.118s-30,13.484-30,30.118v175.719c0,15.521-16.793,25.173-30.126,17.315l-36.6-21.572   c-16.356-9.64-37.366-4.752-47.831,11.128c-11.164,16.941-6.08,39.802,11.202,50.367l93.757,57.316   c5.96,3.644,9.598,10.143,9.598,17.149v23.873H421.5z"/>
	<path style="fill:#FD9A2B;" d="M421.5,256c0-16.634-13.431-30.118-30-30.118c-16.568,0-30,13.484-30,30.118   c0-16.634-13.431-30.118-30-30.118c-16.568,0-30,13.484-30,30.118c0-16.634-13.431-30.118-30-30.118c-16.568,0-30,13.484-30,30.118   V135.529c0-16.932-13.935-30.658-31-30.092v361.386h211V256z"/>
	<path style="fill:#7A86E8;" d="M436.5,451.765h-270c-8.284,0-15,6.742-15,15.059v30.118c0,8.317,6.716,15.059,15,15.059h270   c8.284,0,15-6.742,15-15.059v-30.118C451.5,458.507,444.784,451.765,436.5,451.765z"/>
	<path style="fill:#EA3D2C;" d="M210.5,0v60.235c16.569,0,30-13.484,30-30.118S227.069,0,210.5,0z"/>
	<path style="fill:#4B5ADD;" d="M436.5,451.765h-226V512h226c8.284,0,15-6.742,15-15.059v-30.118   C451.5,458.507,444.784,451.765,436.5,451.765z"/>
</g>















</svg>
