<?xml version="1.0" encoding="iso-8859-1"?>
<!-- Generator: Adobe Illustrator 21.0.0, SVG Export Plug-In . SVG Version: 6.00 Build 0)  -->
<svg xmlns="http://www.w3.org/2000/svg" xmlns:xlink="http://www.w3.org/1999/xlink" version="1.1" id="Capa_1" x="0px" y="0px" viewBox="0 0 512.01 512.01" style="enable-background:new 0 0 512.01 512.01;" xml:space="preserve" width="512" height="512">
<g>
	<path style="fill:#0095FF;" d="M387.292,338.333H218.58c-9.468,0-17.144-7.676-17.144-17.144V17.144   C201.436,7.676,209.112,0,218.58,0h168.712c9.468,0,17.144,7.676,17.144,17.144v304.045   C404.436,330.658,396.76,338.333,387.292,338.333z"/>
	<path style="fill:#A50043;" d="M353.01,307.667h71.186c9.614,0,17.407-7.793,17.407-17.407V89.407   c0-9.614-7.793-17.407-17.407-17.407H353.01c-9.614,0-17.407,7.793-17.407,17.407V290.26   C335.603,299.873,343.396,307.667,353.01,307.667z"/>
	<path style="fill:#FFEF31;" d="M285.967,67H164.739c-9.832,0-17.803,8.148-17.803,18.2v138.647l44.726,125.625h94.305   c9.832,0,17.803-8.148,17.803-18.2V85.2C303.77,75.148,295.799,67,285.967,67z"/>
	<path style="fill:#212CBB;" d="M467.436,409.875H197.126c-6.877,0-12.418-3.036-16.023-8.78   c-3.428-5.462-3.785-11.431-1.031-17.261s7.59-9.346,13.986-10.167c0.587-0.075,155.135-20.042,155.135-20.042   c36.63-4.706,70.113-22.427,94.282-49.899c24.168-27.473,37.479-62.941,37.479-99.872V185.5c0-7.459-5.481-13.785-12.864-14.847   l-128.788-18.531c-0.05-0.007-0.099-0.015-0.149-0.021l-221.835-31.92l-24.515-17.752c-6.709-4.859-16.087-3.359-20.947,3.351   c-4.859,6.71-3.358,16.088,3.351,20.947l23.801,17.235l75.034,204.971c-9.112,4.711-16.47,12.292-21.097,22.089   c-7.133,15.101-6.132,31.876,2.747,46.022c9.107,14.51,24.208,22.832,41.433,22.832h270.311c8.284,0,15-6.716,15-15   S475.72,409.875,467.436,409.875z M378.329,314.946l-8.445-48.379l62.886,1.749C419.996,288.852,401.152,305.201,378.329,314.946z    M450.954,198.497v5.357c0,12.121-1.728,23.802-4.948,34.819l-81.386-2.264l-9.012-51.631L450.954,198.497z M339.282,265.715   l10.05,57.575c-1.314,0.211-2.632,0.409-3.962,0.58l-58.299,7.49l-19.599-67.642L339.282,265.715z M324.37,180.282l9.648,55.275   l-75.312-2.095l-18.936-65.354L324.37,180.282z M134.237,152.924l72.941,10.496l20.041,69.168l-64.476-1.793L134.237,152.924z    M173.842,261.114l62.143,1.728l20.973,72.386l-53.47,6.87L173.842,261.114z"/>
	<circle style="fill:#212CBB;" cx="227.284" cy="479.174" r="32.836"/>
	<circle style="fill:#00215A;" cx="412.038" cy="479.174" r="32.836"/>
	<circle style="fill:#F90053;" cx="61.778" cy="96.585" r="32.204"/>
	<path style="fill:#0063E5;" d="M387.292,0H303.77v338.333h83.523c9.468,0,17.144-7.676,17.144-17.144V17.144   C404.436,7.676,396.76,0,387.292,0z"/>
	<path style="fill:#00215A;" d="M303.77,177.318l20.601,2.964l9.648,55.275l-30.249-0.841v30.011l35.513,0.988l10.05,57.575   c-1.314,0.211-2.632,0.409-3.962,0.58l-41.601,5.345v30.279c25.534-3.299,45.423-5.868,45.423-5.868   c36.63-4.706,70.113-22.427,94.282-49.899c24.168-27.473,37.479-62.941,37.479-99.872V185.5c0-7.459-5.481-13.785-12.864-14.847   l-128.788-18.531c-0.05-0.007-0.099-0.015-0.149-0.021l-35.384-5.091V177.318z M378.329,314.946l-8.445-48.379l62.886,1.749   C419.996,288.852,401.152,305.201,378.329,314.946z M450.954,198.497v5.357c0,12.121-1.728,23.802-4.948,34.819l-81.386-2.264   l-9.012-51.631L450.954,198.497z"/>
	<path style="fill:#00215A;" d="M467.436,409.875H303.77v30h163.667c8.284,0,15-6.716,15-15S475.72,409.875,467.436,409.875z"/>
	<circle style="fill:#E8F6FC;" cx="227.284" cy="479.174" r="11.913"/>
	<circle style="fill:#CEE2E9;" cx="412.038" cy="479.174" r="11.913"/>
</g>















</svg>
