<?xml version="1.0"?>
<svg xmlns="http://www.w3.org/2000/svg" id="Layer_1" data-name="Layer 1" viewBox="0 0 512 512" width="512" height="512"><title>Business Contact</title><path d="M410.58,414.77c8.66,8.58,8.66,17.41.08,26.32-.07,0-.08.06-.03.03-2.03,2.18-4.09,4.24-6.22,6.33l-71.86-71.86-.22-.22,6.93-6.94c2.86-2.86,7.41-6.31,12.7-6.31,5.22,0,9.51,3.28,12.11,6.14l.17.17Z" style="fill:#f8ec7d"/><path d="M332.55,375.59l71.86,71.86c-1.3,1.27-2.64,2.56-4.01,3.9a224.5,224.5,0,0,0-16.23,16.82c-8.49,9.08-18.5,13.37-31.62,13.37-1.26,0-2.6,0-3.87-.08-24.97-1.6-48.18-11.35-65.59-19.68a373.52,373.52,0,0,1-124.13-97.22C130.28,330,111.11,298.04,98.41,263.73c-7.82-20.94-10.68-37.26-9.42-52.65a38.576,38.576,0,0,1,11.6-24.97l21.24-21.24,71.9,71.91c-.1.1-.19.2-.29.29-7.07,7.23-13.79,13.96-21.11,20.52-.17.17-.34.25-.42.42-7.23,7.23-5.89,14.3-4.37,19.09.08.25.16.51.25.76,5.97,14.46,14.38,28.09,27.16,44.32l.09.08c23.21,28.59,47.68,50.88,74.68,67.95a112.976,112.976,0,0,0,10.34,5.64c3.03,1.51,5.89,2.94,8.33,4.45.33.17.67.42,1,.59a18.243,18.243,0,0,0,8.33,2.11c6.98,0,11.35-4.38,12.78-5.81l21.83-21.82Z" style="fill:#e48e66"/><circle cx="323.3" cy="130.46" r="100" style="fill:#6fe3ff"/><path d="M200.67,203.77c8.92,8.91,8.92,17.15,0,26.07-2.34,2.34-4.6,4.69-6.94,6.94l-71.9-71.91,7.44-7.44c4.12-3.87,8.5-5.97,12.78-5.97,5.3,0,9.59,3.19,12.28,5.88l.26.26c5.13,4.79,10,9.75,15.13,15.05,2.61,2.69,5.3,5.38,7.99,8.16Z" style="fill:#f8ec7d"/><path d="M333.03,91h17.19a6,6,0,0,0,0-12H333.03a51.425,51.425,0,0,0-36.653,15.108A50.645,50.645,0,0,0,283.62,115h-13.4a6,6,0,0,0,0,12h11.116c-.086,1-.146,2.266-.146,3.5s.06,2.5.145,3.5H270.22a6,6,0,0,0,0,12h13.4a52.263,52.263,0,0,0,49.409,36h17.19a6,6,0,0,0,0-12H333.03c-16.062,0-30.428-9-36.613-24H338.1a6,6,0,0,0,0-12H293.369a34.212,34.212,0,0,1,0-7H338.1a6,6,0,0,0,0-12H296.425a35.654,35.654,0,0,1,8.438-12.408A39.506,39.506,0,0,1,333.03,91Z" style="fill:#2561a1"/></svg>
