<?xml version="1.0"?>
<svg xmlns="http://www.w3.org/2000/svg" viewBox="0 0 64 64" width="512" height="512"><g id="Time-Clock"><path d="M3,17H51a0,0,0,0,1,0,0V51a0,0,0,0,1,0,0H5a2,2,0,0,1-2-2V17A0,0,0,0,1,3,17Z" style="fill:#a97c50"/><path d="M61,44A17.005,17.005,0,1,1,51,28.51,17,17,0,0,1,61,44Z" style="fill:#ff6243"/><circle cx="44" cy="44" r="13" style="fill:#ffd422"/><circle cx="44" cy="44" r="2" style="fill:#ff6243"/><path d="M33,17v5a1,1,0,0,1-1,1H22a1,1,0,0,1-1-1V3H33V17Z" style="fill:#b38c62"/><rect x="3" y="11" width="18" height="6" style="fill:#c49a6c"/><polygon points="51 11 51 17 33 17 33 13 33 11 51 11" style="fill:#c49a6c"/><path d="M21,3v8H3V5A2.006,2.006,0,0,1,5,3Z" style="fill:#a97c50"/><path d="M51,5v6H33V3H49A2.006,2.006,0,0,1,51,5Z" style="fill:#a97c50"/><rect x="43" y="34" width="2" height="8" style="fill:#3d9ae2"/><rect x="36" y="43" width="6" height="2" style="fill:#3d9ae2"/><rect x="10" y="44" width="8" height="2" style="fill:#c49a6c"/><rect x="10" y="40" width="2" height="2" style="fill:#c49a6c"/><rect x="14" y="40" width="4" height="2" style="fill:#c49a6c"/><path d="M44,47a3,3,0,1,1,3-3A3,3,0,0,1,44,47Zm0-4a1,1,0,1,0,1,1A1,1,0,0,0,44,43Z" style="fill:#ffa733"/></g></svg>
