<?xml version="1.0" encoding="iso-8859-1"?>
<!-- Generator: Adobe Illustrator 19.0.0, SVG Export Plug-In . SVG Version: 6.00 Build 0)  -->
<svg version="1.1" id="Layer_1" xmlns="http://www.w3.org/2000/svg" xmlns:xlink="http://www.w3.org/1999/xlink" x="0px" y="0px"
	 viewBox="0 0 503.322 503.322" style="enable-background:new 0 0 503.322 503.322;" xml:space="preserve">
<g>
	<path style="fill:#E6E7E8;" d="M0,472.949V143.186h503.322v329.763c0,9.589-7.767,17.356-17.356,17.356H17.356
		C7.767,490.305,0,482.538,0,472.949"/>
	<path style="fill:#E64C3C;" d="M0,143.186V73.763c0-9.589,7.767-17.356,17.356-17.356h468.61c9.589,0,17.356,7.767,17.356,17.356
		v69.424H0z"/>
	<g>
		<path style="fill:#E6E7E8;" d="M442.576,99.797c-4.79,0-8.678-3.879-8.678-8.678s3.888-8.678,8.678-8.678
			c14.353,0,26.034-11.681,26.034-26.034s-11.681-26.034-26.034-26.034c-14.353,0-26.034,11.681-26.034,26.034
			c0,4.799-3.888,8.678-8.678,8.678c-4.79,0-8.678-3.879-8.678-8.678c0-23.925,19.465-43.39,43.39-43.39
			c23.925,0,43.39,19.465,43.39,43.39S466.501,99.797,442.576,99.797"/>
		<path style="fill:#E6E7E8;" d="M347.119,99.797c-4.79,0-8.678-3.879-8.678-8.678s3.888-8.678,8.678-8.678
			c14.353,0,26.034-11.681,26.034-26.034s-11.681-26.034-26.034-26.034c-14.353,0-26.034,11.681-26.034,26.034
			c0,4.799-3.888,8.678-8.678,8.678c-4.79,0-8.678-3.879-8.678-8.678c0-23.925,19.465-43.39,43.39-43.39
			c23.925,0,43.39,19.465,43.39,43.39S371.044,99.797,347.119,99.797"/>
		<path style="fill:#E6E7E8;" d="M251.661,99.797c-4.79,0-8.678-3.879-8.678-8.678s3.888-8.678,8.678-8.678
			c14.353,0,26.034-11.681,26.034-26.034s-11.681-26.034-26.034-26.034c-14.353,0-26.034,11.681-26.034,26.034
			c0,4.799-3.888,8.678-8.678,8.678s-8.678-3.879-8.678-8.678c0-23.925,19.465-43.39,43.39-43.39s43.39,19.465,43.39,43.39
			S275.586,99.797,251.661,99.797"/>
		<path style="fill:#E6E7E8;" d="M156.203,99.797c-4.79,0-8.678-3.879-8.678-8.678s3.888-8.678,8.678-8.678
			c14.353,0,26.034-11.681,26.034-26.034s-11.681-26.034-26.034-26.034c-14.353,0-26.034,11.681-26.034,26.034
			c0,4.799-3.888,8.678-8.678,8.678s-8.678-3.879-8.678-8.678c0-23.925,19.465-43.39,43.39-43.39s43.39,19.465,43.39,43.39
			S180.129,99.797,156.203,99.797"/>
		<path style="fill:#E6E7E8;" d="M60.746,99.797c-4.79,0-8.678-3.879-8.678-8.678s3.888-8.678,8.678-8.678
			c14.353,0,26.034-11.681,26.034-26.034S75.099,30.373,60.746,30.373S34.712,42.053,34.712,56.407c0,4.799-3.888,8.678-8.678,8.678
			s-8.678-3.879-8.678-8.678c0-23.925,19.465-43.39,43.39-43.39s43.39,19.465,43.39,43.39S84.671,99.797,60.746,99.797"/>
	</g>
	<g>
		<polygon style="fill:#F0C419;" points="69.428,247.322 121.496,247.322 121.496,195.254 69.428,195.254 		"/>
		<polygon style="fill:#F0C419;" points="173.564,247.322 225.631,247.322 225.631,195.254 173.564,195.254 		"/>
		<polygon style="fill:#F0C419;" points="277.699,247.322 329.767,247.322 329.767,195.254 277.699,195.254 		"/>
		<polygon style="fill:#F0C419;" points="381.835,247.322 433.903,247.322 433.903,195.254 381.835,195.254 		"/>
		<polygon style="fill:#F0C419;" points="69.428,342.78 121.496,342.78 121.496,290.712 69.428,290.712 		"/>
		<polygon style="fill:#F0C419;" points="173.564,342.78 225.631,342.78 225.631,290.712 173.564,290.712 		"/>
		<polygon style="fill:#F0C419;" points="69.428,438.237 121.496,438.237 121.496,386.169 69.428,386.169 		"/>
		<polygon style="fill:#F0C419;" points="173.564,438.237 225.631,438.237 225.631,386.169 173.564,386.169 		"/>
	</g>
	<path style="fill:#6ABDA0;" d="M442.576,368.814c0-47.928-38.851-86.78-86.78-86.78s-86.78,38.851-86.78,86.78
		s38.851,86.78,86.78,86.78S442.576,416.742,442.576,368.814"/>
	<path style="fill:#FFFFFF;" d="M347.119,420.881c-2.291,0-4.504-0.902-6.135-2.543l-34.712-34.712
		c-3.393-3.393-3.393-8.878,0-12.271s8.878-3.393,12.271,0l27.231,27.231l46.193-69.302c2.655-3.992,8.044-5.059,12.036-2.404
		c3.983,2.664,5.059,8.044,2.404,12.036l-52.068,78.102c-1.441,2.161-3.784,3.567-6.361,3.818
		C347.683,420.864,347.405,420.881,347.119,420.881"/>
</g>
<g>
</g>
<g>
</g>
<g>
</g>
<g>
</g>
<g>
</g>
<g>
</g>
<g>
</g>
<g>
</g>
<g>
</g>
<g>
</g>
<g>
</g>
<g>
</g>
<g>
</g>
<g>
</g>
<g>
</g>
</svg>
