<svg height="469pt" viewBox="0 -5 469.664 469" width="469pt" xmlns="http://www.w3.org/2000/svg"><path d="m407.472656 63.796875h-125.191406c-12.441406 0-22.527344 10.085937-22.527344 22.527344v113.519531c0 12.441406 10.085938 22.527344 22.527344 22.527344h9.246094v46.585937l64.089844-46.585937h51.863281c12.441406 0 22.527343-10.085938 22.527343-22.527344v-113.519531c-.007812-12.441407-10.097656-22.527344-22.535156-22.527344zm0 0" fill="#f9a287"/><path d="m275.753906 215.84375v-124.398438c0-6.433593 5.214844-11.648437 11.644532-11.648437h136.074218c1.984375 0 3.871094.335937 5.703125.816406-2.535156-9.664062-11.246093-16.816406-21.703125-16.816406h-125.191406c-12.441406 0-22.527344 10.085937-22.527344 22.527344v113.519531c0 10.457031 7.15625 19.167969 16.8125 21.703125-.476562-1.832031-.8125-3.71875-.8125-5.703125zm0 0" fill="#ffc8bb"/><path d="m291.527344 272.957031c-.617188 0-1.238282-.144531-1.816406-.441406-1.34375-.679687-2.183594-2.054687-2.183594-3.558594v-42.585937h-5.246094c-14.625 0-26.519531-11.894532-26.519531-26.527344v-113.519531c0-14.632813 11.894531-26.527344 26.519531-26.527344h125.191406c14.632813 0 26.527344 11.894531 26.527344 26.527344v113.519531c0 14.632812-11.894531 26.527344-26.527344 26.527344h-50.5625l-63.03125 45.824218c-.695312.503907-1.527344.761719-2.351562.761719zm-9.246094-205.160156c-10.210938 0-18.519531 8.3125-18.519531 18.527344v113.519531c0 10.214844 8.308593 18.527344 18.519531 18.527344h9.246094c2.207031 0 4 1.792968 4 4v38.738281l57.738281-41.96875c.679687-.496094 1.503906-.769531 2.351563-.769531h51.855468c10.214844 0 18.527344-8.3125 18.527344-18.527344v-113.519531c0-10.214844-8.3125-18.527344-18.527344-18.527344zm0 0" fill="#63312d"/><path d="m443.144531 63.796875h-35.671875c12.4375 0 22.527344 10.085937 22.527344 22.527344v113.519531c0 12.441406-10.089844 22.527344-22.527344 22.527344h35.664063c12.4375 0 22.527343-10.085938 22.527343-22.527344v-113.519531c.007813-12.441407-10.078124-22.527344-22.519531-22.527344zm0 0" fill="#db785a"/><path d="m443.144531 226.371094h-35.671875c-2.207031 0-4-1.792969-4-4 0-2.207032 1.792969-4 4-4 10.214844 0 18.527344-8.3125 18.527344-18.527344v-113.519531c0-10.214844-8.3125-18.527344-18.527344-18.527344-2.207031 0-4-1.792969-4-4s1.792969-4 4-4h35.671875c14.625 0 26.519531 11.894531 26.519531 26.527344v113.519531c0 14.632812-11.894531 26.527344-26.519531 26.527344zm-16.703125-8h16.703125c10.207031 0 18.519531-8.3125 18.519531-18.527344v-113.519531c0-10.214844-8.3125-18.527344-18.519531-18.527344h-16.703125c4.679688 4.78125 7.558594 11.328125 7.558594 18.527344v113.519531c0 7.207031-2.878906 13.746094-7.558594 18.527344zm0 0" fill="#63312d"/><path d="m324.511719 347.234375c-.433594-8.222656-7.816407-14.390625-16.046875-14.390625h-67.160156c9.71875-16.769531 22.054687-34 26.589843-52.945312 1.898438-7.925782-.839843-16.496094-7.664062-20.957032-9.054688-5.921875-20.796875-3.074218-26.277344 5.710938l-2.738281 4.382812c-7.789063 12.480469-18.03125 23.257813-30.101563 31.664063l-37.480469 26.105469v117.75l13.550782 4.914062c9.207031 3.34375 18.9375 5.046875 28.738281 5.046875h86.09375c8.230469 0 15.617187-6.167969 16.046875-14.390625.457031-8.769531-6.519531-16.023438-15.191406-16.023438h4.578125c8.238281 0 15.613281-6.167968 16.046875-14.394531.457031-8.765625-6.519532-16.023437-15.191406-16.023437h4.574218c8.234375 0 15.617188-6.167969 16.050782-14.390625.453124-8.769531-6.523438-16.03125-15.195313-16.03125h5.585937c8.679688 0 15.65625-7.257813 15.191407-16.027344zm0 0" fill="#f9dd9d"/><path d="m309.328125 367.261719h-22.601563v-8h22.601563c6.175781 0 11.207031-5.027344 11.207031-11.210938 0-6.183593-5.03125-11.207031-11.207031-11.207031h-68.023437c-1.433594 0-2.753907-.769531-3.472657-2-.710937-1.238281-.710937-2.769531.007813-4 2.039062-3.511719 4.191406-7.046875 6.367187-10.617188 8.273438-13.582031 16.824219-27.628906 20.082031-42.46875 1.511719-6.9375-2.128906-13.976562-8.65625-16.746093-6.730468-2.847657-14.425781-.441407-18.296874 5.769531l-2.734376 4.382812c-8.121093 13.007813-18.617187 24.054688-31.210937 32.832032l-37.46875 26.105468-4.578125-6.5625 37.472656-26.101562c11.703125-8.152344 21.464844-18.417969 29.007813-30.503906l2.734375-4.386719c5.960937-9.550781 17.832031-13.292969 28.203125-8.894531 10.070312 4.28125 15.6875 15.136718 13.34375 25.824218-3.539063 16.152344-12.449219 30.777344-21.066407 44.917969-.902343 1.496094-1.816406 2.984375-2.710937 4.464844h61c10.59375 0 19.207031 8.617187 19.207031 19.207031 0 10.59375-8.613281 19.195313-19.207031 19.195313zm0 0" fill="#63312d"/><path d="m303.734375 397.683594h-22.597656v-8h22.597656c6.175781 0 11.210937-5.023438 11.210937-11.207032 0-6.183593-5.035156-11.207031-11.210937-11.207031h-22.597656v-8h22.597656c10.59375 0 19.210937 8.613281 19.210937 19.207031.007813 10.589844-8.609374 19.207032-19.210937 19.207032zm0 0" fill="#63312d"/><path d="m298.3125 428.101562h-22.609375v-8h22.609375c6.175781 0 11.207031-5.027343 11.207031-11.210937s-5.03125-11.207031-11.207031-11.207031h-22.609375v-8h22.609375c10.589844 0 19.207031 8.617187 19.207031 19.207031 0 10.59375-8.617187 19.210937-19.207031 19.210937zm0 0" fill="#63312d"/><path d="m292.871094 458.523438h-88.039063c-9.574219 0-18.992187-1.65625-27.992187-4.910157l-14.574219-5.289062 2.734375-7.519531 14.574219 5.289062c8.121093 2.941406 16.609375 4.4375 25.257812 4.4375h88.039063c6.175781 0 11.207031-5.023438 11.207031-11.207031 0-6.175781-5.03125-11.207031-11.207031-11.207031h-22.605469v-8h22.605469c10.59375 0 19.207031 8.613281 19.207031 19.207031 0 10.582031-8.613281 19.199219-19.207031 19.199219zm0 0" fill="#63312d"/><path d="m111.695312 323.789062h51.9375v128.015626h-51.9375zm0 0" fill="#82d9ff"/><path d="m163.632812 455.804688h-51.929687c-2.207031 0-4-1.792969-4-4v-128.015626c0-2.210937 1.792969-4 4-4h51.929687c2.207032 0 4 1.789063 4 4v128.015626c0 2.214843-1.792968 4-4 4zm-47.9375-8h43.9375v-120.015626h-43.929687v120.015626zm0 0" fill="#63312d"/><path d="m29.328125 4.332031h142.664063c13.992187 0 25.335937 11.34375 25.335937 25.335938v127.664062c0 13.992188-11.34375 25.335938-25.335937 25.335938h-10.398438v52.390625l-72.074219-52.390625h-60.191406c-13.992187 0-25.335937-11.34375-25.335937-25.335938v-127.664062c0-13.992188 11.34375-25.335938 25.335937-25.335938zm0 0" fill="#82d9ff"/><path d="m19.992188 173.332031v-137c0-8.839843 7.160156-16 16-16h151.992187c2.792969 0 5.429687.558594 7.9375 1.390625-3.347656-10.078125-12.738281-17.390625-23.9375-17.390625h-142.65625c-13.992187 0-25.335937 11.34375-25.335937 25.335938v127.664062c0 11.199219 7.320312 20.59375 17.390624 23.9375-.832031-2.503906-1.390624-5.144531-1.390624-7.9375zm0 0" fill="#caf4ff"/><path d="m161.59375 239.058594c-.832031 0-1.65625-.253906-2.355469-.765625l-71.015625-51.625h-58.886718c-16.175782 0-29.335938-13.160157-29.335938-29.335938v-127.664062c0-16.167969 13.160156-29.335938 29.335938-29.335938h142.65625c16.175781 0 29.335937 13.160157 29.335937 29.335938v127.664062c0 16.167969-13.160156 29.335938-29.335937 29.335938h-6.398438v48.390625c0 1.503906-.839844 2.882812-2.1875 3.5625-.574219.292968-1.199219.4375-1.8125.4375zm-132.257812-230.726563c-11.769532 0-21.335938 9.566407-21.335938 21.335938v127.664062c0 11.761719 9.566406 21.335938 21.335938 21.335938h60.183593c.839844 0 1.671875.273437 2.351563.769531l65.722656 47.773438v-44.535157c0-2.207031 1.789062-4 4-4h10.398438c11.769531 0 21.335937-9.566406 21.335937-21.335937v-127.671875c0-11.761719-9.566406-21.335938-21.335937-21.335938zm0 0" fill="#63312d"/><path d="m211.945312 4.332031h-39.960937c13.992187 0 25.335937 11.34375 25.335937 25.335938v127.664062c0 13.992188-11.34375 25.335938-25.335937 25.335938h-10.398437v52.390625h39.957031v-52.390625h10.402343c13.992188 0 25.335938-11.34375 25.335938-25.335938v-127.664062c0-13.992188-11.34375-25.335938-25.335938-25.335938zm0 0" fill="#52b8d9"/><g fill="#63312d"><path d="m201.550781 239.058594h-39.957031c-2.210938 0-4-1.789063-4-4v-52.390625c0-2.207031 1.789062-4 4-4h10.398438c11.769531 0 21.335937-9.566407 21.335937-21.335938v-127.664062c0-11.761719-9.566406-21.335938-21.335937-21.335938-2.207032 0-4-1.792969-4-4s1.792968-4 4-4h39.960937c16.167969 0 29.328125 13.160157 29.328125 29.335938v127.664062c0 16.167969-13.160156 29.335938-29.328125 29.335938h-6.402344v48.390625c0 2.210937-1.789062 4-4 4zm-35.957031-8h31.957031v-48.390625c0-2.207031 1.792969-4 4-4h10.402344c11.757813 0 21.328125-9.566407 21.328125-21.335938v-127.664062c0-11.761719-9.570312-21.335938-21.328125-21.335938h-19.839844c5.671875 5.351563 9.214844 12.9375 9.214844 21.335938v127.664062c0 16.167969-13.160156 29.335938-29.335937 29.335938h-6.398438zm0 0"/><path d="m51.910156 59.796875h97.503906v8h-97.503906zm0 0"/><path d="m51.910156 86.292969h97.503906v8h-97.503906zm0 0"/><path d="m51.910156 112.796875h97.503906v8h-97.503906zm0 0"/><path d="m301.214844 112.589844h97.503906v8h-97.503906zm0 0"/><path d="m301.214844 139.085938h97.503906v8h-97.503906zm0 0"/><path d="m301.214844 165.589844h97.503906v8h-97.503906zm0 0"/></g></svg>